<?xml version="1.0" ?><!DOCTYPE svg  PUBLIC '-//W3C//DTD SVG 1.1//EN'  'http://www.w3.org/Graphics/SVG/1.1/DTD/svg11.dtd'><svg id="Lager_1" style="enable-background:new 0 0 128 128;" version="1.1" viewBox="0 0 128 128" xml:space="preserve" xmlns="http://www.w3.org/2000/svg" xmlns:xlink="http://www.w3.org/1999/xlink"><g><path d="M64,36c-15.5,0-28,12.5-28,28c0,12.3,8,22.9,19.2,26.7c1.4,0.2,2-0.7,2-1.4v-4.8c-7.8,1.7-9.5-3.7-9.5-3.7   c-1.2-3.2-3.1-4.1-3.1-4.1C42,74.9,44.8,75,44.8,75c2.8,0.1,4.3,2.8,4.3,2.8c2.5,4.3,6.6,3,8.2,2.3c0.3-1.8,1-3.1,1.8-3.8   c-6.3-0.8-12.9-3-12.9-13.8c0-3.1,1-5.6,2.8-7.5c-0.3-0.8-1.2-3.5,0.3-7.4c0,0,2.3-0.8,7.7,2.8c2.2-0.6,4.7-1,7.1-1   c2.3,0,4.8,0.4,7.1,1c5.3-3.5,7.6-2.8,7.6-2.8c1.5,3.9,0.6,6.7,0.3,7.4c1.7,1.9,2.8,4.4,2.8,7.5c0,10.8-6.7,13.1-12.9,13.8   c1,0.8,1.9,2.5,1.9,5.1v7.8c0,0.8,0.6,1.7,2,1.4C84,86.8,92,76.4,92,64C92,48.5,79.4,36,64,36z"/><path d="M64,14c-27.6,0-50,22.4-50,50s22.4,50,50,50s50-22.4,50-50S91.6,14,64,14z M64,96c-17.7,0-32-14.4-32-32   c0-17.7,14.3-32,32-32s32,14.3,32,32S81.7,96,64,96z"/></g></svg>