<?xml version="1.0" ?><!DOCTYPE svg  PUBLIC '-//W3C//DTD SVG 1.1//EN'  'http://www.w3.org/Graphics/SVG/1.1/DTD/svg11.dtd'><svg id="Lager_1" style="enable-background:new 0 0 128 128;" version="1.1" viewBox="0 0 128 128" xml:space="preserve" xmlns="http://www.w3.org/2000/svg" xmlns:xlink="http://www.w3.org/1999/xlink"><g><path d="M64,14c-27.6,0-50,22.4-50,50s22.4,50,50,50s50-22.4,50-50S91.6,14,64,14z M83.4,87.5L63.9,93l-19.4-5.5L40.2,39h47.6   L83.4,87.5z"/><polygon points="71.2,66.9 70.5,74.6 63.9,76.4 57.3,74.6 56.9,69.9 51,69.9 51.7,79.2 63.9,82.6 64,82.6 76.1,79.3 77.8,60.9    56.1,60.9 55.6,54.8 78.4,54.8 78.9,48.9 49.1,48.9 50.7,66.9  "/></g></svg>