<?xml version="1.0" ?><!DOCTYPE svg  PUBLIC '-//W3C//DTD SVG 1.1//EN'  'http://www.w3.org/Graphics/SVG/1.1/DTD/svg11.dtd'><svg id="Lager_1" style="enable-background:new 0 0 128 128;" version="1.1" viewBox="0 0 128 128" xml:space="preserve" xmlns="http://www.w3.org/2000/svg" xmlns:xlink="http://www.w3.org/1999/xlink"><g><path d="M64,33.5c-16.8,0-30.5,13.7-30.5,30.5S47.2,94.5,64,94.5S94.5,80.8,94.5,64S80.8,33.5,64,33.5z M36.5,64   c0-4,0.9-7.8,2.4-11.2L52,88.7C42.8,84.3,36.5,74.9,36.5,64z M64.1,91.4c-2.7,0-5.3-0.4-7.8-1.1l8.2-23.9l8.5,23   c0.1,0.2,0.1,0.3,0.2,0.4C70.4,90.8,67.3,91.4,64.1,91.4z M67.8,51.2c1.6-0.1,3.1-0.3,3.1-0.3c1.5-0.2,1.3-2.4-0.2-2.3   c0,0-4.4,0.4-7.3,0.4c-2.7,0-7.2-0.4-7.2-0.4c-1.5-0.1-1.7,2.2-0.2,2.3c0,0,1.4,0.1,3,0.2l4.3,11.7l-6,18l-10-29.7   c1.6-0.1,3.1-0.3,3.1-0.3c1.5-0.2,1.3-2.4-0.2-2.3c0,0-4.4,0.4-7.3,0.4c-0.5,0-1.2,0-1.8,0C46,41.4,54.4,36.5,64,36.5   c7.1,0,13.6,2.7,18.5,7.2c-0.2,0-0.3,0-0.4,0c-2.7,0-4.6,2.4-4.6,4.9c0,2.2,1.3,4.1,2.7,6.4c1.1,1.9,2.3,4.2,2.3,7.6   c0,2.4-0.7,5.3-2.1,9l-2.7,9.1L67.8,51.2z M88.1,50.8c2.1,3.9,3.4,8.4,3.4,13.2c0,10.1-5.5,19-13.7,23.6l8.4-24.2   c1.6-3.9,2.1-7,2.1-9.8C88.3,52.6,88.2,51.7,88.1,50.8z"/><path d="M64,14c-27.6,0-50,22.4-50,50s22.4,50,50,50s50-22.4,50-50S91.6,14,64,14z M64,96c-17.6,0-32-14.4-32-32s14.4-32,32-32   s32,14.4,32,32S81.6,96,64,96z"/></g></svg>