<?xml version="1.0" ?><!DOCTYPE svg  PUBLIC '-//W3C//DTD SVG 1.1//EN'  'http://www.w3.org/Graphics/SVG/1.1/DTD/svg11.dtd'><svg id="Lager_1" style="enable-background:new 0 0 128 128;" version="1.1" viewBox="0 0 128 128" xml:space="preserve" xmlns="http://www.w3.org/2000/svg" xmlns:xlink="http://www.w3.org/1999/xlink"><g><path d="M72.1,44.9c-4.2,0-8.3,1.4-11.7,4.2c1.3,0.6,2.6,1.4,3.8,2.3c2.4-1.6,5.2-2.4,7.9-2.4c3.6,0,7.2,1.4,10,4.1   c5.5,5.5,5.5,14.4,0,19.9c-1.4,1.3-2.9,2.3-4.5,3c-0.6,0.3-1.3,0.5-2,0.7c-1.1,0.3-2.3,0.4-3.5,0.4c-2.7,0-5.2-0.7-7.4-2.1   c-0.9-0.6-1.8-1.3-2.6-2.1l-8.5-8.5c-0.4-0.4-1-0.6-1.5-0.6c-0.6,0-1.1,0.2-1.5,0.6c-0.8,0.8-0.8,2.1,0,2.9l5.6,5.6l2.1,2.1   l0.8,0.8c0.4,0.4,0.9,0.8,1.3,1.2c3.3,2.6,7.3,4.1,11.6,4.1h0.3c1.3,0,2.5-0.1,3.7-0.4c0.8-0.2,1.5-0.4,2.3-0.7   c2.5-0.9,4.7-2.3,6.6-4.2c7.2-7.1,7.2-18.6,0.1-25.6C81.4,46.7,76.8,44.9,72.1,44.9z"/><path d="M54.5,76.6h-1.9c-2.9,0-5.6-1.1-7.6-3.1c-4.2-4.2-4.2-10.9,0-15.1c2-1.9,4.6-3,7.3-3.1h0.3c0.7,0,1.3,0.1,2,0.2   c1.8,0.3,3.6,1.2,5,2.4c0.2,0.2,0.3,0.3,0.5,0.5l1,1l5,5c0.4,0.4,1,0.6,1.5,0.6c0.6,0,1.1-0.2,1.5-0.6c0.8-0.8,0.8-2.1,0-2.9   l-4.9-4.9l-1-1c-0.2-0.1-0.3-0.3-0.5-0.4c-0.5-0.5-1-0.9-1.6-1.3c-1.2-0.8-2.5-1.5-3.9-1.9c-0.8-0.2-1.5-0.4-2.3-0.5   c-0.7-0.1-1.5-0.2-2.2-0.2h-0.1c-4,0.1-7.7,1.6-10.5,4.4c-5.8,5.8-5.8,15.2,0,21c2.8,2.9,6.5,4.4,10.5,4.4l6.4-0.3   c-1-0.8-1.9-1.6-2.8-2.5L54.5,76.6z"/><path d="M64,14c-27.6,0-50,22.4-50,50s22.4,50,50,50s50-22.4,50-50S91.6,14,64,14z M89,79.7c-2.4,2.4-5.3,4.3-8.6,5.5   c-1,0.4-2.1,0.7-3.1,0.9c-1.6,0.4-3.2,0.6-4.8,0.6h-0.4H72c-0.5,0-1,0-1.5,0H52.6c-5.5,0-10.7-2.1-14.6-6c-3.9-3.8-6-9-6-14.5   s2.1-10.6,6-14.5c3.8-3.8,8.9-5.9,14.3-6h0.1h0.2c0.8,0,1.7,0.1,2.5,0.2l1.6-1.3C61,41,66.5,39,72.1,39c6.4,0,12.4,2.5,16.9,7   C98.3,55.4,98.3,70.6,89,79.7z"/></g></svg>